<svg width="116" height="26" viewBox="0 0 116 26" fill="none" xmlns="http://www.w3.org/2000/svg">
<path d="M17.2761 0.949707V25.0497H24.4165V6.30547L17.2761 0.949707ZM14.448 3.06416V25.0497H15.9327V1.93675L14.448 3.06416ZM11.62 25.0497H13.1045V4.12111L11.62 5.17789V25.0497ZM8.79179 25.0497H10.2765V6.23538L8.79179 7.36279V25.0497ZM25.7598 11.7315V25.0497H32.9016V17.0869L25.7598 11.7315ZM5.96361 13.8456V25.0497H7.44851V12.7885L5.96361 13.8456ZM3.13561 25.0497H4.62033V14.9027L3.13561 15.9599V25.0497ZM0.307617 25.0497H1.79234V17.0165L0.307617 18.144V25.0497Z" fill="#EB0029"/>
<path d="M51.2827 14.3388C49.1637 14.3388 47.8202 13.141 47.8202 10.8155V6.30553H49.586V10.8155C49.586 12.0836 50.2232 12.7885 51.3542 12.7885C52.4137 12.7885 53.0508 12.0838 53.0508 10.8155V6.30553H54.819V10.7451C54.819 13.2114 53.404 14.3388 51.2827 14.3388ZM60.0494 14.3388C58.8492 14.3388 57.6466 13.9161 56.7279 13.0707L57.7182 11.8726C58.4245 12.4363 59.2023 12.7885 60.1211 12.7885C60.8274 12.7885 61.2519 12.5067 61.2519 12.0838V12.0134C61.2519 11.5907 60.9705 11.3791 59.627 11.0269C58.0713 10.6042 57.0095 10.1108 57.0095 8.5607C57.0095 7.08067 58.1403 6.1648 59.7679 6.1648C60.9705 6.1648 61.9584 6.51706 62.7363 7.15113L61.8175 8.49007C61.1829 7.99672 60.4741 7.71492 59.7679 7.71492C59.1308 7.71492 58.7776 7.99673 58.7776 8.41943C58.7776 8.91278 59.1308 9.12431 60.4741 9.47657C62.1017 9.89928 63.0203 10.4633 63.0203 11.8726C63.0203 13.493 61.8175 14.3388 60.0494 14.3388ZM70.372 14.2685V11.0269H67.1197V14.2687H65.3538V6.30589H67.1197V9.4063H70.372V6.30553H72.1401V14.2684L70.372 14.2685ZM100.774 14.2685L97.028 9.26539V14.2685H95.3314V6.30571H96.9565L100.705 11.3791V6.30553H102.402V14.2684L100.774 14.2685ZM66.4849 25.0498L64.0104 21.6674L63.0918 22.6539V25.0498H61.3237V17.087H63.0918V20.6103L66.3441 17.087H68.4631L65.2108 20.4695L68.6062 25.0498H66.4849ZM70.5842 25.0498V17.087H76.5235V18.6373H72.2809V20.2582H76.0296V21.8081H72.2809V23.4995H76.5952V25.0498H70.5842ZM87.5524 25.0498H89.2492V17.0871H87.5524V25.0498ZM91.8666 25.0498V17.087H97.8059V18.6373H93.6348V20.2582H97.3094V21.8081H93.6348V23.4995H97.875V25.0498H91.8666ZM100.493 25.0498V17.087H102.258V23.4995H106.22V25.0498H100.493ZM111.45 25.0498H108.338V17.087H111.45C113.996 17.087 115.693 18.8488 115.693 21.0331V21.1036C115.693 23.3586 113.996 25.0498 111.45 25.0498ZM113.855 21.1036C113.855 19.6942 112.865 18.7077 111.45 18.7077H110.107V23.4995H111.45C112.865 23.4995 113.855 22.513 113.855 21.1036ZM42.659 12.7885C41.1723 12.7885 40.1846 11.6613 40.1846 10.3222V10.2517C40.1846 8.91278 41.1031 7.78537 42.5158 7.78537C43.2936 7.71492 44.0025 8.06736 44.4964 8.63097L45.6274 7.29203C44.8495 6.58751 43.79 6.09417 42.5158 6.1648C40.0413 6.1648 38.2757 8.06736 38.3447 10.3222C38.4164 12.6476 40.1846 14.4093 42.659 14.3388C43.9308 14.3388 45.0618 13.7752 45.7681 12.9294L44.5679 11.802C44.1432 12.3658 43.4369 12.7179 42.659 12.7883V12.7885ZM81.0478 6.30553H82.9566V14.2684H81.2602V9.05404L78.998 12.4364H78.9288L76.6644 9.05404V14.2687H75.0393V6.30589H76.8767L78.998 9.61783L81.0478 6.30553ZM88.2611 6.30553L84.8657 14.2684H86.7054L87.4117 12.4363H90.8048L91.5134 14.2685H93.3508L89.9577 6.30571L88.2611 6.30553ZM88.0488 10.886L89.1083 8.34916L90.1702 10.886H88.0488ZM54.3226 17.0868L50.9295 25.0498H52.6977L53.4755 23.2881H56.7994L57.5749 25.0498H59.3431L55.95 17.087L54.3226 17.0868ZM54.0411 21.7378L55.1004 19.1306L56.1624 21.7378H54.0411ZM80.8377 18.7077V20.3989H84.5841V22.0196H80.8377V25.0498H79.0695V17.087H85.1495V18.7077H80.8377ZM49.0206 17.0868L47.1831 22.6539L45.3459 17.087H43.6468L41.8096 22.6539L39.9721 17.087H38.0632L40.9601 25.0498H42.7282L44.4964 19.6238L46.3335 25.0498H48.0303L50.9295 17.087L49.0206 17.0868ZM113.571 12.2952L114.49 11.2384L113.431 10.1108L112.581 11.0269L111.591 9.82901C112.228 9.47657 112.653 8.77187 112.653 8.06736C112.581 6.93995 111.734 6.1648 110.603 6.1648C110.038 6.1648 109.541 6.37616 109.188 6.72842C108.835 7.08067 108.623 7.57384 108.623 8.13781C108.694 8.77187 109.047 9.26539 109.329 9.61765C108.41 9.96991 107.704 10.9566 107.773 11.9431C107.844 13.2817 108.976 14.4093 110.39 14.4093C111.168 14.4093 112.016 13.9865 112.581 13.3525L113.29 14.2684H115.339L113.571 12.2952ZM111.662 12.2247C111.238 12.7179 110.815 12.9294 110.391 12.9294C109.825 12.9294 109.329 12.5067 109.329 11.8726C109.259 11.52 109.541 11.0269 110.319 10.6744L111.662 12.2247ZM110.672 8.91278C110.46 8.70142 110.178 8.41961 110.107 8.13781C110.107 7.856 110.247 7.57384 110.672 7.50356C111.025 7.50356 111.238 7.78537 111.238 8.13763C111.238 8.48989 110.884 8.77169 110.672 8.91278Z" fill="#717271"/>
</svg>
